<?xml version="1.0" standalone="no"?>
<!DOCTYPE svg PUBLIC "-//W3C//DTD SVG 20010904//EN"
 "http://www.w3.org/TR/2001/REC-SVG-20010904/DTD/svg10.dtd">
<svg version="1.0" xmlns="http://www.w3.org/2000/svg"
 width="1242.000000pt" height="804.000000pt" viewBox="0 0 1242.000000 804.000000"
 preserveAspectRatio="xMidYMid meet">
<metadata>
Created by potrace 1.10, written by Peter Selinger 2001-2011
</metadata>
<g transform="translate(0.000000,804.000000) scale(0.100000,-0.100000)"
fill="#000000" stroke="none">
<path d="M0 4020 l0 -4020 6210 0 6210 0 0 4020 0 4020 -6210 0 -6210 0 0
-4020z m12135 -40 l0 -3655 -5875 0 -5875 0 -3 3645 c-1 2005 0 3651 3 3658 3
10 1184 12 5877 10 l5873 -3 0 -3655z"/>
<path d="M4875 7398 c-33 -17 -87 -43 -120 -58 -33 -15 -85 -38 -115 -52 -30
-14 -89 -41 -130 -59 -41 -19 -101 -47 -135 -64 l-60 -30 -3 -148 c-3 -169 -2
-170 77 -147 25 7 69 16 96 20 28 4 75 13 105 19 30 7 89 19 130 27 123 25
224 46 238 50 9 3 12 59 12 239 0 269 7 254 -95 203z"/>
<path d="M1790 6754 c-25 -7 -52 -14 -61 -14 -16 0 -81 -28 -124 -53 -53 -31
-88 -63 -127 -115 -62 -82 -89 -143 -116 -260 -15 -69 -17 -147 -17 -782 0
-739 1 -758 46 -907 30 -103 70 -174 134 -238 91 -91 202 -135 342 -135 159 0
306 72 377 183 9 16 24 27 33 25 8 -2 30 -38 47 -81 18 -43 37 -82 43 -88 5
-5 48 -9 99 -7 l89 3 0 715 0 715 -295 0 -295 0 0 -205 0 -205 60 -5 60 -5 3
-219 c3 -247 -8 -313 -56 -353 -36 -30 -109 -31 -145 -2 -56 43 -57 60 -57
793 0 449 4 684 11 710 6 21 25 52 42 67 26 24 40 29 82 29 94 0 115 -46 115
-246 0 -88 4 -136 13 -147 11 -16 34 -17 237 -15 l225 3 3 90 c4 114 -22 303
-54 403 -29 89 -78 174 -126 218 -44 41 -104 84 -117 84 -5 0 -22 6 -38 14
-85 43 -337 61 -433 30z"/>
<path d="M5719 6750 c-225 -61 -344 -192 -400 -435 -11 -48 -14 -207 -14 -795
0 -664 2 -742 18 -812 57 -255 163 -382 366 -442 107 -32 262 -15 368 39 43
22 140 111 148 136 4 10 14 19 24 19 13 0 27 -23 53 -87 l35 -88 94 0 94 0 0
715 0 715 -295 0 -295 0 0 -205 0 -205 65 -5 65 -5 0 -220 c0 -253 -10 -310
-57 -350 -43 -37 -114 -35 -150 3 -57 60 -58 75 -58 792 0 574 2 662 16 703
22 64 63 97 120 97 99 0 116 -35 124 -250 l5 -155 226 -3 c197 -2 228 0 240
14 11 13 11 42 0 167 -24 298 -74 436 -201 555 -37 34 -148 92 -178 92 -9 0
-39 7 -66 15 -70 21 -261 18 -347 -5z"/>
<path d="M7140 6754 c-25 -7 -53 -14 -62 -14 -10 0 -48 -14 -85 -31 -84 -40
-189 -142 -225 -219 -75 -159 -78 -201 -78 -963 0 -518 3 -672 15 -747 16
-110 42 -190 85 -264 34 -60 126 -160 162 -176 12 -6 43 -22 68 -35 25 -13 54
-24 65 -25 11 0 42 -7 69 -15 64 -20 228 -20 292 0 27 8 57 15 67 15 9 0 48
15 85 32 96 47 180 134 231 240 77 159 76 149 76 978 0 815 1 804 -67 949 -41
89 -139 186 -231 229 -37 18 -75 32 -85 32 -9 0 -39 7 -66 15 -64 19 -254 19
-316 -1z m232 -461 c14 -16 31 -46 37 -68 16 -57 15 -1331 0 -1409 -16 -76
-52 -116 -106 -116 -46 0 -77 19 -101 63 -16 30 -17 85 -17 737 0 388 4 718 8
733 22 80 127 115 179 60z"/>
<path d="M2766 6731 c-4 -5 -6 -555 -6 -1221 0 -666 2 -1216 6 -1221 7 -12
471 -12 479 0 3 6 7 261 8 568 l2 558 42 3 c49 4 108 -21 126 -52 9 -15 13
-161 17 -551 l5 -530 240 0 240 0 0 530 c0 519 -1 531 -22 587 -29 78 -57 114
-114 150 -48 29 -56 48 -19 48 10 0 43 24 73 53 87 83 116 190 117 422 0 208
-26 369 -77 470 -44 90 -108 141 -216 175 -57 18 -94 20 -479 20 -242 0 -419
-4 -422 -9z m678 -470 c26 -28 29 -38 34 -124 7 -148 -4 -221 -40 -263 -30
-34 -32 -35 -102 -32 l-71 3 -3 210 c-1 115 0 215 2 222 4 9 28 13 79 13 68 0
75 -2 101 -29z"/>
<path d="M4135 6728 c-3 -7 -4 -560 -3 -1228 l3 -1215 505 0 505 0 0 235 0
235 -255 5 -255 5 0 280 0 280 230 5 230 5 0 235 0 235 -230 5 -230 5 0 220 0
220 240 5 240 5 0 235 0 235 -488 3 c-385 2 -489 0 -492 -10z"/>
<path d="M8095 6728 c-3 -7 -4 -560 -3 -1228 l3 -1215 224 -3 c124 -1 228 1
233 6 9 9 12 2428 2 2443 -9 15 -454 12 -459 -3z"/>
<path d="M8775 6728 c-3 -7 -4 -560 -3 -1228 l3 -1215 240 0 240 0 5 565 5
565 29 3 c46 6 88 -6 121 -32 l30 -24 5 -539 5 -538 240 0 240 0 0 515 c0 391
-3 529 -13 572 -14 61 -64 144 -97 162 -71 39 -90 66 -45 66 10 0 43 24 73 53
95 90 123 213 114 485 -7 196 -24 299 -65 385 -51 110 -109 161 -225 197 -57
18 -94 20 -480 20 -325 0 -419 -3 -422 -12z m673 -461 c32 -34 42 -79 42 -184
0 -116 -14 -182 -46 -216 -24 -26 -30 -28 -97 -25 l-72 3 -3 210 c-1 115 0
215 2 222 4 9 29 13 79 13 64 0 76 -3 95 -23z"/>
<path d="M10146 6731 c-10 -15 -7 -2434 2 -2443 5 -5 231 -7 503 -6 l494 3 0
235 0 235 -250 5 -250 5 0 280 0 280 225 5 225 5 0 235 0 235 -225 5 -225 5 0
220 0 220 235 5 235 5 0 235 0 235 -482 3 c-288 1 -484 -2 -487 -7z"/>
<path d="M2940 3754 c-25 -7 -53 -14 -62 -14 -10 0 -48 -14 -85 -31 -84 -40
-189 -142 -225 -219 -75 -159 -78 -201 -78 -963 0 -518 3 -672 15 -747 16
-110 42 -190 85 -264 34 -60 126 -160 162 -176 12 -6 43 -22 68 -35 25 -13 54
-24 65 -25 11 0 42 -7 69 -15 64 -20 228 -20 292 0 27 8 57 15 67 15 9 0 48
15 85 32 96 47 180 134 231 240 77 159 76 149 76 978 0 815 1 804 -67 949 -41
89 -139 186 -231 229 -37 18 -75 32 -85 32 -9 0 -39 7 -66 15 -64 19 -254 19
-316 -1z m232 -461 c14 -16 31 -46 37 -68 16 -57 15 -1331 0 -1409 -16 -76
-52 -116 -106 -116 -46 0 -77 19 -101 63 -16 30 -17 85 -17 737 0 388 4 718 8
733 22 80 127 115 179 60z"/>
<path d="M5689 3750 c-225 -61 -344 -192 -400 -435 -11 -48 -14 -207 -14 -795
0 -664 2 -742 18 -812 57 -255 163 -382 366 -442 107 -32 262 -15 368 39 43
22 140 111 148 136 4 10 14 19 24 19 13 0 27 -23 53 -87 l35 -88 94 0 94 0 0
715 0 715 -295 0 -295 0 0 -205 0 -205 65 -5 65 -5 0 -220 c0 -253 -10 -310
-57 -350 -43 -37 -114 -35 -150 3 -57 60 -58 75 -58 792 0 574 2 662 16 703
22 64 63 97 120 97 99 0 116 -35 124 -250 l5 -155 226 -3 c197 -2 228 0 240
14 11 13 11 42 0 167 -24 298 -74 436 -201 555 -37 34 -148 92 -178 92 -9 0
-39 7 -66 15 -70 21 -261 18 -347 -5z"/>
<path d="M1365 3728 c-3 -7 -4 -560 -3 -1228 l3 -1215 495 0 495 0 0 205 0
205 -250 5 -250 5 -5 1015 -5 1015 -238 3 c-185 2 -239 0 -242 -10z"/>
<path d="M3915 3728 c-3 -7 -4 -560 -3 -1228 l3 -1215 245 0 245 0 5 565 5
565 39 3 c51 4 115 -24 129 -57 8 -18 14 -187 17 -551 l5 -525 229 -3 c126 -1
233 1 238 6 5 5 8 239 8 521 0 530 -3 570 -44 648 -17 34 -76 89 -112 105 -33
15 -30 25 11 42 77 32 132 113 162 237 34 143 17 510 -30 639 -34 92 -102 177
-172 213 -87 44 -117 47 -556 47 -327 0 -421 -3 -424 -12z m672 -453 c35 -24
48 -80 48 -205 0 -125 -12 -174 -49 -209 -20 -19 -33 -22 -97 -19 l-74 3 -3
210 c-1 115 0 215 2 222 8 19 145 17 173 -2z"/>
<path d="M6685 3728 c-3 -7 -4 -560 -3 -1228 l3 -1215 235 0 235 0 5 557 c3
306 8 559 12 563 3 4 8 -2 11 -12 14 -52 41 -177 73 -338 115 -578 153 -758
161 -766 5 -5 111 -8 239 -7 l229 3 0 1225 0 1225 -230 0 -230 0 -3 -537 c-1
-296 -6 -538 -10 -538 -14 0 -40 97 -72 275 -18 94 -38 202 -45 240 -7 39 -28
147 -46 240 -17 94 -39 204 -48 245 l-16 75 -248 3 c-193 2 -249 0 -252 -10z"/>
<path d="M8095 3728 c-3 -7 -4 -560 -3 -1228 l3 -1215 224 -3 c124 -1 228 1
233 6 9 9 12 2428 2 2443 -9 15 -454 12 -459 -3z"/>
<path d="M8775 3728 c-3 -7 -4 -560 -3 -1228 l3 -1215 500 0 500 0 0 235 0
235 -250 5 -250 5 0 280 0 280 220 3 c121 1 223 6 228 11 4 4 8 108 8 231 0
123 -4 227 -8 231 -5 5 -107 10 -228 11 l-220 3 0 220 0 220 235 5 235 5 0
235 0 235 -483 3 c-381 2 -484 0 -487 -10z"/>
<path d="M9955 3728 c-3 -7 -4 -560 -3 -1228 l3 -1215 245 0 245 0 5 565 5
565 39 3 c50 4 110 -22 127 -57 11 -21 15 -135 19 -551 l5 -525 235 0 235 0 3
520 c2 499 1 523 -18 587 -23 76 -61 126 -121 160 -21 12 -39 25 -39 30 0 4
15 14 34 22 44 18 98 72 123 121 45 88 57 168 56 365 -2 293 -39 439 -138 540
-49 50 -84 70 -164 94 -45 14 -115 16 -472 16 -327 0 -421 -3 -424 -12z m666
-448 c40 -22 52 -67 53 -200 1 -135 -10 -183 -48 -219 -20 -19 -33 -22 -97
-19 l-74 3 -3 210 c-1 115 0 215 2 222 7 16 138 18 167 3z"/>
</g>
</svg>
